<?xml version="1.0" encoding="utf-8"?>
<svg xmlns="http://www.w3.org/2000/svg"
	xmlns:xlink="http://www.w3.org/1999/xlink"
	width="30px" height="30px" viewBox="0 0 30 30">
<rect x="0" y="0" width="30" height="30" rx="10" fill="rgb(36,79,138)"/><path fillRule="evenodd" d="M 15.32 11.03C 15.32 9.86 16.94 7.66 18.49 7.66 20.04 7.66 22.85 7.66 22.85 7.66 22.85 7.66 22.85 11.45 22.85 11.45 22.85 11.45 20.89 11.45 20.47 11.45 20.06 11.45 19.68 11.9 19.68 12.3 19.68 12.38 19.68 14.4 19.68 14.4 19.68 14.4 22.85 14.4 22.85 14.4 22.85 14.4 22.06 18.2 22.06 18.2 22.06 18.2 19.68 18.19 19.68 18.19 19.68 18.19 19.68 28.73 19.68 28.73 19.68 28.73 15.32 28.73 15.32 28.73 15.32 28.73 15.32 18.19 15.32 18.19 15.32 18.19 13.34 18.2 13.34 18.2 13.34 18.2 13.34 14.4 13.34 14.4 13.34 14.4 15.32 14.41 15.32 14.41 15.32 14.41 15.32 11.33 15.32 11.03Z" fill="rgb(255,255,255)"/></svg>